# xmcd CD database file
#
# Track frame offsets:
#	150
#	14403
#	23766
#	39265
#	51821
#	62322
#	72755
#	88939
#	98039
#	109523
#	119726
#	131658
#	143483
#	154387
#	163185
#	173110
#	181865
#	196545
#	208868
#	220992
#	232424
#	244073
#	256972
#	271118
#
# Disc length: 3752 seconds
#
# Revision: 0
# Processed by: cddbd v1.5.1PL2 Copyright (c) Steve Scherf et al.
# Submitted via: CDex 1.51
#
DISCID=510ea618
DTITLE=Various Artist - Easy Listening Country Favourites CD5
DYEAR=2000
DGENRE=Country
TTITLE0=The Cattlemen - Red River Valley
TTITLE1=The Cattlemen - The Yellow Rose of Texas
TTITLE2=The Cattlemen - Cool Water
TTITLE3=The Cattlemen - Tumbling Tumbleweeds
TTITLE4=Frank Saunders - Clementine
TTITLE5=Paul Calyton - The Rovin' Gambler
TTITLE6=Marty Robbins - Riders in the Sky
TTITLE7=Frank Sunders - Oh, Susanna
TTITLE8=Paul Clayton - In the Pines
TTITLE9=The Cattlemen - Whoopee ti yi yo
TTITLE10=the Cattlemen - A Cowboy's Dream
TTITLE11=The Cattlemen - When the Work's All Done This Fall
TTITLE12=Don Reno and Bobby Thompson with the Cripple Creek Quartet - Duellng Banjo's
TTITLE13=Floyd Cramer - On the Rebound
TTITLE14=Jerry Reed with the Hurshell Wiginton Swingers - Yakety Axe
TTITLE15=Don Reno and Bobby Thompson with the Cripple Creek Quartet - Foggy Mountain Breakdown
TTITLE16=Floyd Cramer - Longer
TTITLE17=Joe Edwars, with Bill Walker and his Orchestra - San Antonio Rose
TTITLE18=Don Reno and Bobby Thompson with the Cripple Creek Quartet - Wabash Canonball
TTITLE19=Don Reno and Bobby Thompson with the Cripple Creek Quartet - Guitar Boogie
TTITLE20=Floyd Cramer - Gentle on my Mind
TTITLE21=Chet Atkins with Mullins and his Orchestra - South
TTITLE22=Ricky King and the Dreamland Orchestra - Camptown Races
TTITLE23=Don Reno and Bobby Thompson with the Cripple Creek Quartet - This Land is Your Land
EXTD=YEAR: 2000
EXTT0=
EXTT1=
EXTT2=
EXTT3=
EXTT4=
EXTT5=
EXTT6=
EXTT7=
EXTT8=
EXTT9=
EXTT10=
EXTT11=
EXTT12=
EXTT13=
EXTT14=
EXTT15=
EXTT16=
EXTT17=
EXTT18=
EXTT19=
EXTT20=
EXTT21=
EXTT22=
EXTT23=
PLAYORDER=
